<mxfile host="app.diagrams.net" modified="2024-06-05T11:02:23.015Z" agent="Mozilla/5.0 (Windows NT 10.0; Win64; x64) AppleWebKit/537.36 (KHTML, like Gecko) Chrome/124.0.0.0 Safari/537.36" etag="v9CabVPHm5K0gM9J-Ydl" version="24.4.9" type="device" pages="3">
  <diagram name="general" id="wWGyB7CY458hCMCGl9B1">
    <mxGraphModel dx="989" dy="597" grid="1" gridSize="10" guides="1" tooltips="1" connect="1" arrows="1" fold="1" page="1" pageScale="1" pageWidth="827" pageHeight="1169" math="0" shadow="0">
      <root>
        <mxCell id="0" />
        <mxCell id="1" parent="0" />
        <mxCell id="kW2f-uZVSnXoy2bMKub4-27" value="" style="endArrow=none;dashed=1;html=1;rounded=0;strokeWidth=2;" parent="1" edge="1">
          <mxGeometry width="50" height="50" relative="1" as="geometry">
            <mxPoint x="240" y="530" as="sourcePoint" />
            <mxPoint x="240" y="210" as="targetPoint" />
          </mxGeometry>
        </mxCell>
        <mxCell id="kW2f-uZVSnXoy2bMKub4-28" value="" style="endArrow=none;dashed=1;html=1;rounded=0;strokeWidth=2;" parent="1" edge="1">
          <mxGeometry width="50" height="50" relative="1" as="geometry">
            <mxPoint x="600" y="530" as="sourcePoint" />
            <mxPoint x="600" y="210" as="targetPoint" />
          </mxGeometry>
        </mxCell>
        <mxCell id="kW2f-uZVSnXoy2bMKub4-5" value="" style="rounded=1;whiteSpace=wrap;html=1;fillColor=#f5f5f5;fontColor=#333333;strokeColor=#666666;arcSize=5;" parent="1" vertex="1">
          <mxGeometry x="280" y="250" width="170" height="90" as="geometry" />
        </mxCell>
        <mxCell id="luzURdqNToG3hxR_e6jb-1" value="UART / PCIe" style="rounded=0;whiteSpace=wrap;html=1;" parent="1" vertex="1">
          <mxGeometry x="80" y="250" width="120" height="90" as="geometry" />
        </mxCell>
        <mxCell id="kW2f-uZVSnXoy2bMKub4-1" value="COBS&lt;div&gt;&lt;div&gt;DECODER&lt;/div&gt;&lt;/div&gt;" style="rounded=0;whiteSpace=wrap;html=1;" parent="1" vertex="1">
          <mxGeometry x="290" y="260" width="70" height="70" as="geometry" />
        </mxCell>
        <mxCell id="kW2f-uZVSnXoy2bMKub4-2" value="&lt;div&gt;QUADCORE&lt;/div&gt;" style="rounded=0;whiteSpace=wrap;html=1;" parent="1" vertex="1">
          <mxGeometry x="640" y="265" width="120" height="60" as="geometry" />
        </mxCell>
        <mxCell id="kW2f-uZVSnXoy2bMKub4-3" value="&lt;div&gt;QUADCORE&lt;br&gt;&lt;/div&gt;" style="rounded=0;whiteSpace=wrap;html=1;" parent="1" vertex="1">
          <mxGeometry x="640" y="360" width="120" height="60" as="geometry" />
        </mxCell>
        <mxCell id="kW2f-uZVSnXoy2bMKub4-4" value="&lt;div&gt;QUADCORE&lt;br&gt;&lt;/div&gt;" style="rounded=0;whiteSpace=wrap;html=1;" parent="1" vertex="1">
          <mxGeometry x="640" y="450" width="120" height="60" as="geometry" />
        </mxCell>
        <mxCell id="kW2f-uZVSnXoy2bMKub4-7" value="DATA&lt;div&gt;ROUTER&lt;/div&gt;" style="rounded=0;whiteSpace=wrap;html=1;" parent="1" vertex="1">
          <mxGeometry x="490" y="250" width="70" height="90" as="geometry" />
        </mxCell>
        <mxCell id="kW2f-uZVSnXoy2bMKub4-8" value="" style="shape=flexArrow;endArrow=classic;html=1;rounded=0;exitX=1;exitY=0.5;exitDx=0;exitDy=0;fillColor=#4D4D4D;strokeColor=none;entryX=0;entryY=0.5;entryDx=0;entryDy=0;" parent="1" source="luzURdqNToG3hxR_e6jb-1" target="kW2f-uZVSnXoy2bMKub4-5" edge="1">
          <mxGeometry width="50" height="50" relative="1" as="geometry">
            <mxPoint x="240" y="330" as="sourcePoint" />
            <mxPoint x="240" y="295" as="targetPoint" />
          </mxGeometry>
        </mxCell>
        <mxCell id="kW2f-uZVSnXoy2bMKub4-9" value="" style="shape=flexArrow;endArrow=classic;html=1;rounded=0;exitX=1;exitY=0.5;exitDx=0;exitDy=0;fillColor=#4D4D4D;strokeColor=none;" parent="1" edge="1">
          <mxGeometry width="50" height="50" relative="1" as="geometry">
            <mxPoint x="560" y="294.94999999999993" as="sourcePoint" />
            <mxPoint x="640" y="294.65999999999997" as="targetPoint" />
          </mxGeometry>
        </mxCell>
        <mxCell id="kW2f-uZVSnXoy2bMKub4-10" value="" style="shape=flexArrow;endArrow=classic;html=1;rounded=0;fillColor=#4D4D4D;strokeColor=none;entryX=0;entryY=0.5;entryDx=0;entryDy=0;shadow=0;" parent="1" edge="1">
          <mxGeometry width="50" height="50" relative="1" as="geometry">
            <mxPoint x="590" y="290" as="sourcePoint" />
            <mxPoint x="639.9999999999998" y="389.9999999999999" as="targetPoint" />
            <Array as="points">
              <mxPoint x="590" y="390" />
            </Array>
          </mxGeometry>
        </mxCell>
        <mxCell id="kW2f-uZVSnXoy2bMKub4-11" value="" style="shape=flexArrow;endArrow=classic;html=1;rounded=1;fillColor=#4D4D4D;strokeColor=none;entryX=0;entryY=0.5;entryDx=0;entryDy=0;" parent="1" edge="1">
          <mxGeometry width="50" height="50" relative="1" as="geometry">
            <mxPoint x="590" y="380" as="sourcePoint" />
            <mxPoint x="640" y="480" as="targetPoint" />
            <Array as="points">
              <mxPoint x="590" y="480" />
            </Array>
          </mxGeometry>
        </mxCell>
        <mxCell id="kW2f-uZVSnXoy2bMKub4-29" value="&lt;font style=&quot;font-size: 14px;&quot;&gt;COMMUNICATION&lt;/font&gt;" style="rounded=0;whiteSpace=wrap;html=1;strokeColor=none;fillColor=none;fontStyle=1;fontFamily=Verdana;fontSize=14;" parent="1" vertex="1">
          <mxGeometry y="140" width="200" height="60" as="geometry" />
        </mxCell>
        <mxCell id="kW2f-uZVSnXoy2bMKub4-30" value="&lt;font style=&quot;font-size: 14px;&quot;&gt;PACKET PROCESS&lt;/font&gt;" style="rounded=0;whiteSpace=wrap;html=1;strokeColor=none;fillColor=none;fontStyle=1;fontFamily=Verdana;fontSize=14;" parent="1" vertex="1">
          <mxGeometry x="240" y="150" width="360" height="60" as="geometry" />
        </mxCell>
        <mxCell id="kW2f-uZVSnXoy2bMKub4-31" value="BCRYPT CORES" style="rounded=0;whiteSpace=wrap;html=1;strokeColor=none;fillColor=none;fontStyle=1;fontFamily=Verdana;fontSize=14;" parent="1" vertex="1">
          <mxGeometry x="610" y="150" width="180" height="60" as="geometry" />
        </mxCell>
        <mxCell id="DsgOxgg1TdwKokWb8J3w-3" value="&lt;div&gt;CRC&lt;/div&gt;&lt;div&gt;CHECK&lt;br&gt;&lt;/div&gt;" style="rounded=0;whiteSpace=wrap;html=1;" parent="1" vertex="1">
          <mxGeometry x="370" y="260" width="70" height="70" as="geometry" />
        </mxCell>
        <mxCell id="TCaUU9XWG-o6mrFI4UNr-1" value="&lt;font&gt;PACKET RECEIVER&lt;/font&gt;" style="rounded=0;whiteSpace=wrap;html=1;strokeColor=none;fillColor=none;fontStyle=1;fontFamily=Verdana;" parent="1" vertex="1">
          <mxGeometry x="260" y="210" width="175" height="60" as="geometry" />
        </mxCell>
        <mxCell id="TCaUU9XWG-o6mrFI4UNr-3" value="" style="shape=flexArrow;endArrow=classic;html=1;rounded=0;exitX=1;exitY=0.5;exitDx=0;exitDy=0;fillColor=#4D4D4D;strokeColor=none;entryX=0;entryY=0.5;entryDx=0;entryDy=0;" parent="1" target="kW2f-uZVSnXoy2bMKub4-7" edge="1">
          <mxGeometry width="50" height="50" relative="1" as="geometry">
            <mxPoint x="450" y="294.66" as="sourcePoint" />
            <mxPoint x="530" y="294.66" as="targetPoint" />
          </mxGeometry>
        </mxCell>
      </root>
    </mxGraphModel>
  </diagram>
  <diagram id="Ej6dJNtUA6J3Xb9uRzSc" name="packet_format">
    <mxGraphModel dx="989" dy="597" grid="1" gridSize="10" guides="1" tooltips="1" connect="1" arrows="1" fold="1" page="1" pageScale="1" pageWidth="827" pageHeight="1169" math="0" shadow="0">
      <root>
        <mxCell id="0" />
        <mxCell id="1" parent="0" />
        <mxCell id="Kbpwj_XkhxJdl01qxhKT-2" value="ID" style="rounded=0;whiteSpace=wrap;html=1;" parent="1" vertex="1">
          <mxGeometry x="160" y="350" width="40" height="40" as="geometry" />
        </mxCell>
        <mxCell id="Kbpwj_XkhxJdl01qxhKT-3" value="1 Byte" style="rounded=0;whiteSpace=wrap;html=1;fillColor=none;strokeColor=none;" parent="1" vertex="1">
          <mxGeometry x="160" y="310" width="40" height="40" as="geometry" />
        </mxCell>
        <mxCell id="Kbpwj_XkhxJdl01qxhKT-4" value="CRACK MAX" style="rounded=0;whiteSpace=wrap;html=1;" parent="1" vertex="1">
          <mxGeometry x="200" y="350" width="80" height="40" as="geometry" />
        </mxCell>
        <mxCell id="Kbpwj_XkhxJdl01qxhKT-5" value="4 Bytes" style="rounded=0;whiteSpace=wrap;html=1;fillColor=none;strokeColor=none;" parent="1" vertex="1">
          <mxGeometry x="200" y="310" width="80" height="40" as="geometry" />
        </mxCell>
        <mxCell id="Kbpwj_XkhxJdl01qxhKT-6" value="SALT" style="rounded=0;whiteSpace=wrap;html=1;" parent="1" vertex="1">
          <mxGeometry x="280" y="350" width="120" height="40" as="geometry" />
        </mxCell>
        <mxCell id="Kbpwj_XkhxJdl01qxhKT-7" value="16 Bytes" style="rounded=0;whiteSpace=wrap;html=1;fillColor=none;strokeColor=none;" parent="1" vertex="1">
          <mxGeometry x="280" y="310" width="120" height="40" as="geometry" />
        </mxCell>
        <mxCell id="Kbpwj_XkhxJdl01qxhKT-8" value="HASH" style="rounded=0;whiteSpace=wrap;html=1;" parent="1" vertex="1">
          <mxGeometry x="400" y="350" width="120" height="40" as="geometry" />
        </mxCell>
        <mxCell id="Kbpwj_XkhxJdl01qxhKT-9" value="23 Bytes" style="rounded=0;whiteSpace=wrap;html=1;fillColor=none;strokeColor=none;" parent="1" vertex="1">
          <mxGeometry x="400" y="310" width="120" height="40" as="geometry" />
        </mxCell>
        <mxCell id="Kbpwj_XkhxJdl01qxhKT-10" value="PWD COUNTER INIT" style="rounded=0;whiteSpace=wrap;html=1;" parent="1" vertex="1">
          <mxGeometry x="520" y="350" width="160" height="40" as="geometry" />
        </mxCell>
        <mxCell id="Kbpwj_XkhxJdl01qxhKT-11" value="54 Bytes" style="rounded=0;whiteSpace=wrap;html=1;fillColor=none;strokeColor=none;" parent="1" vertex="1">
          <mxGeometry x="520" y="310" width="160" height="40" as="geometry" />
        </mxCell>
        <mxCell id="Kbpwj_XkhxJdl01qxhKT-12" value="" style="endArrow=classic;html=1;rounded=0;startArrow=classic;startFill=1;" parent="1" edge="1">
          <mxGeometry width="50" height="50" relative="1" as="geometry">
            <mxPoint x="160" y="410" as="sourcePoint" />
            <mxPoint x="680" y="410" as="targetPoint" />
          </mxGeometry>
        </mxCell>
        <mxCell id="Kbpwj_XkhxJdl01qxhKT-13" value="&lt;span&gt;98 Bytes&lt;/span&gt;" style="rounded=0;whiteSpace=wrap;html=1;fillColor=none;strokeColor=none;fontFamily=Verdana;fontStyle=1" parent="1" vertex="1">
          <mxGeometry x="160" y="420" width="520" height="40" as="geometry" />
        </mxCell>
        <mxCell id="KJlfXx-siTSAB3NleRVp-1" value="PAYLOAD EXAMPLE - BCRYPT QUADCORE INIT" style="rounded=0;whiteSpace=wrap;html=1;fillColor=none;strokeColor=none;fontFamily=Verdana;fontStyle=1;fontSize=20;" parent="1" vertex="1">
          <mxGeometry x="120" y="260" width="600" height="40" as="geometry" />
        </mxCell>
        <mxCell id="KJlfXx-siTSAB3NleRVp-2" value="&lt;div&gt;COBS&lt;br&gt;&lt;/div&gt;&lt;div&gt;HEAD&lt;/div&gt;" style="rounded=0;whiteSpace=wrap;html=1;" parent="1" vertex="1">
          <mxGeometry x="194" y="180" width="80" height="40" as="geometry" />
        </mxCell>
        <mxCell id="KJlfXx-siTSAB3NleRVp-3" value="1 Byte" style="rounded=0;whiteSpace=wrap;html=1;fillColor=none;strokeColor=none;" parent="1" vertex="1">
          <mxGeometry x="194" y="140" width="80" height="40" as="geometry" />
        </mxCell>
        <mxCell id="KJlfXx-siTSAB3NleRVp-8" value="PAYLOAD" style="rounded=0;whiteSpace=wrap;html=1;" parent="1" vertex="1">
          <mxGeometry x="354" y="180" width="120" height="40" as="geometry" />
        </mxCell>
        <mxCell id="KJlfXx-siTSAB3NleRVp-9" value="Variable" style="rounded=0;whiteSpace=wrap;html=1;fillColor=none;strokeColor=none;" parent="1" vertex="1">
          <mxGeometry x="354" y="140" width="120" height="40" as="geometry" />
        </mxCell>
        <mxCell id="KJlfXx-siTSAB3NleRVp-10" value="&lt;div&gt;COBS&lt;/div&gt;&lt;div&gt;&lt;span style=&quot;background-color: initial;&quot;&gt;END&lt;/span&gt;&lt;/div&gt;" style="rounded=0;whiteSpace=wrap;html=1;" parent="1" vertex="1">
          <mxGeometry x="554" y="180" width="80" height="40" as="geometry" />
        </mxCell>
        <mxCell id="KJlfXx-siTSAB3NleRVp-14" value="PACKET FORMAT" style="rounded=0;whiteSpace=wrap;html=1;fillColor=none;strokeColor=none;fontFamily=Verdana;fontStyle=1;fontSize=20;" parent="1" vertex="1">
          <mxGeometry x="274" y="90" width="280" height="40" as="geometry" />
        </mxCell>
        <mxCell id="KJlfXx-siTSAB3NleRVp-15" value="CRC" style="rounded=0;whiteSpace=wrap;html=1;" parent="1" vertex="1">
          <mxGeometry x="474" y="180" width="80" height="40" as="geometry" />
        </mxCell>
        <mxCell id="KJlfXx-siTSAB3NleRVp-18" value="1 Byte" style="rounded=0;whiteSpace=wrap;html=1;fillColor=none;strokeColor=none;" parent="1" vertex="1">
          <mxGeometry x="474" y="140" width="80" height="40" as="geometry" />
        </mxCell>
        <mxCell id="KJlfXx-siTSAB3NleRVp-19" value="1 Byte" style="rounded=0;whiteSpace=wrap;html=1;fillColor=none;strokeColor=none;" parent="1" vertex="1">
          <mxGeometry x="554" y="140" width="80" height="40" as="geometry" />
        </mxCell>
        <mxCell id="gpWO1HJho7meWF10mmqA-1" value="PAYLOAD&lt;div&gt;LENGTH&lt;/div&gt;" style="rounded=0;whiteSpace=wrap;html=1;" vertex="1" parent="1">
          <mxGeometry x="274" y="180" width="80" height="40" as="geometry" />
        </mxCell>
        <mxCell id="gpWO1HJho7meWF10mmqA-2" value="1 Byte" style="rounded=0;whiteSpace=wrap;html=1;fillColor=none;strokeColor=none;" vertex="1" parent="1">
          <mxGeometry x="274" y="140" width="80" height="40" as="geometry" />
        </mxCell>
      </root>
    </mxGraphModel>
  </diagram>
  <diagram id="sWG0stbWaSt5cjvIcMF4" name="data_router">
    <mxGraphModel dx="819" dy="495" grid="1" gridSize="10" guides="1" tooltips="1" connect="1" arrows="1" fold="1" page="1" pageScale="1" pageWidth="827" pageHeight="1169" math="0" shadow="0">
      <root>
        <mxCell id="0" />
        <mxCell id="1" parent="0" />
        <mxCell id="JskoURoQhUJMNRTtYPGv-28" value="" style="rounded=0;whiteSpace=wrap;html=1;" vertex="1" parent="1">
          <mxGeometry x="160" y="180" width="360" height="320" as="geometry" />
        </mxCell>
        <mxCell id="GSp2bS3jH19l8olLpKYD-2" value="DATA&lt;div&gt;BUFFER&lt;/div&gt;" style="rounded=0;whiteSpace=wrap;html=1;" vertex="1" parent="1">
          <mxGeometry x="240" y="360" width="80" height="80" as="geometry" />
        </mxCell>
        <mxCell id="JskoURoQhUJMNRTtYPGv-2" style="edgeStyle=orthogonalEdgeStyle;rounded=0;orthogonalLoop=1;jettySize=auto;html=1;entryX=0.5;entryY=0;entryDx=0;entryDy=0;" edge="1" parent="1" source="GSp2bS3jH19l8olLpKYD-3" target="GSp2bS3jH19l8olLpKYD-2">
          <mxGeometry relative="1" as="geometry" />
        </mxCell>
        <mxCell id="GSp2bS3jH19l8olLpKYD-3" value="COUNTER" style="rounded=0;whiteSpace=wrap;html=1;" vertex="1" parent="1">
          <mxGeometry x="240" y="240" width="80" height="80" as="geometry" />
        </mxCell>
        <mxCell id="GSp2bS3jH19l8olLpKYD-4" value="" style="endArrow=classic;html=1;rounded=0;entryX=0;entryY=0.25;entryDx=0;entryDy=0;" edge="1" parent="1" target="GSp2bS3jH19l8olLpKYD-2">
          <mxGeometry width="50" height="50" relative="1" as="geometry">
            <mxPoint x="160" y="380" as="sourcePoint" />
            <mxPoint x="240" y="360" as="targetPoint" />
          </mxGeometry>
        </mxCell>
        <mxCell id="JskoURoQhUJMNRTtYPGv-3" value="" style="endArrow=classic;html=1;rounded=0;entryX=0;entryY=0.75;entryDx=0;entryDy=0;" edge="1" parent="1" target="GSp2bS3jH19l8olLpKYD-3">
          <mxGeometry width="50" height="50" relative="1" as="geometry">
            <mxPoint x="160" y="300" as="sourcePoint" />
            <mxPoint x="220" y="300" as="targetPoint" />
          </mxGeometry>
        </mxCell>
        <mxCell id="JskoURoQhUJMNRTtYPGv-4" value="" style="endArrow=classic;html=1;rounded=0;entryX=1;entryY=1;entryDx=0;entryDy=0;exitX=0.5;exitY=0;exitDx=0;exitDy=0;" edge="1" parent="1" source="JskoURoQhUJMNRTtYPGv-9" target="JskoURoQhUJMNRTtYPGv-14">
          <mxGeometry width="50" height="50" relative="1" as="geometry">
            <mxPoint x="440" y="200" as="sourcePoint" />
            <mxPoint x="231" y="260" as="targetPoint" />
            <Array as="points">
              <mxPoint x="440" y="200" />
              <mxPoint x="200" y="200" />
              <mxPoint x="200" y="260" />
            </Array>
          </mxGeometry>
        </mxCell>
        <mxCell id="JskoURoQhUJMNRTtYPGv-9" value="OUTPUT" style="rounded=0;whiteSpace=wrap;html=1;" vertex="1" parent="1">
          <mxGeometry x="400" y="240" width="80" height="240" as="geometry" />
        </mxCell>
        <mxCell id="JskoURoQhUJMNRTtYPGv-10" value="" style="shape=flexArrow;endArrow=classic;html=1;rounded=0;entryX=0;entryY=0.75;entryDx=0;entryDy=0;fillColor=#4D4D4D;strokeColor=none;shadow=0;strokeWidth=1;width=10;endSize=5.761904761904762;" edge="1" parent="1">
          <mxGeometry width="50" height="50" relative="1" as="geometry">
            <mxPoint x="320" y="399.76" as="sourcePoint" />
            <mxPoint x="400" y="399.76" as="targetPoint" />
          </mxGeometry>
        </mxCell>
        <mxCell id="JskoURoQhUJMNRTtYPGv-12" value="" style="shape=flexArrow;endArrow=classic;html=1;rounded=0;entryX=0;entryY=0.75;entryDx=0;entryDy=0;fillColor=#4D4D4D;strokeColor=none;shadow=0;strokeWidth=1;width=10;endSize=5.761904761904762;" edge="1" parent="1">
          <mxGeometry width="50" height="50" relative="1" as="geometry">
            <mxPoint x="160" y="420" as="sourcePoint" />
            <mxPoint x="240" y="420" as="targetPoint" />
          </mxGeometry>
        </mxCell>
        <mxCell id="JskoURoQhUJMNRTtYPGv-14" value="RST" style="rounded=0;whiteSpace=wrap;html=1;fillColor=none;strokeColor=none;" vertex="1" parent="1">
          <mxGeometry x="200" y="240" width="40" height="20" as="geometry" />
        </mxCell>
        <mxCell id="JskoURoQhUJMNRTtYPGv-15" value="EN" style="rounded=0;whiteSpace=wrap;html=1;fillColor=none;strokeColor=none;" vertex="1" parent="1">
          <mxGeometry x="200" y="280" width="40" height="20" as="geometry" />
        </mxCell>
        <mxCell id="JskoURoQhUJMNRTtYPGv-16" value="EN" style="rounded=0;whiteSpace=wrap;html=1;fillColor=none;strokeColor=none;" vertex="1" parent="1">
          <mxGeometry x="200" y="360" width="40" height="20" as="geometry" />
        </mxCell>
        <mxCell id="JskoURoQhUJMNRTtYPGv-17" value="DATA" style="rounded=0;whiteSpace=wrap;html=1;fillColor=none;strokeColor=none;" vertex="1" parent="1">
          <mxGeometry x="180" y="390" width="40" height="20" as="geometry" />
        </mxCell>
        <mxCell id="JskoURoQhUJMNRTtYPGv-19" value="DATA" style="rounded=0;whiteSpace=wrap;html=1;fillColor=none;strokeColor=none;" vertex="1" parent="1">
          <mxGeometry x="340" y="370" width="40" height="20" as="geometry" />
        </mxCell>
        <mxCell id="JskoURoQhUJMNRTtYPGv-21" value="" style="endArrow=classic;html=1;rounded=0;entryX=0;entryY=0.75;entryDx=0;entryDy=0;" edge="1" parent="1">
          <mxGeometry width="50" height="50" relative="1" as="geometry">
            <mxPoint x="160" y="460" as="sourcePoint" />
            <mxPoint x="400" y="460" as="targetPoint" />
          </mxGeometry>
        </mxCell>
        <mxCell id="JskoURoQhUJMNRTtYPGv-22" value="VALID" style="rounded=0;whiteSpace=wrap;html=1;fillColor=none;strokeColor=none;" vertex="1" parent="1">
          <mxGeometry x="360" y="440" width="40" height="20" as="geometry" />
        </mxCell>
        <mxCell id="JskoURoQhUJMNRTtYPGv-23" value="" style="shape=flexArrow;endArrow=classic;html=1;rounded=0;entryX=0;entryY=0.75;entryDx=0;entryDy=0;fillColor=#4D4D4D;strokeColor=none;shadow=0;strokeWidth=1;width=10;endSize=5.761904761904762;" edge="1" parent="1">
          <mxGeometry width="50" height="50" relative="1" as="geometry">
            <mxPoint x="480" y="279.52" as="sourcePoint" />
            <mxPoint x="560" y="279.52" as="targetPoint" />
          </mxGeometry>
        </mxCell>
        <mxCell id="JskoURoQhUJMNRTtYPGv-24" value="" style="shape=flexArrow;endArrow=classic;html=1;rounded=0;entryX=0;entryY=0.75;entryDx=0;entryDy=0;fillColor=#4D4D4D;strokeColor=none;shadow=0;strokeWidth=1;width=10;endSize=5.761904761904762;" edge="1" parent="1">
          <mxGeometry width="50" height="50" relative="1" as="geometry">
            <mxPoint x="480" y="320" as="sourcePoint" />
            <mxPoint x="560" y="320" as="targetPoint" />
          </mxGeometry>
        </mxCell>
        <mxCell id="JskoURoQhUJMNRTtYPGv-25" value="" style="shape=flexArrow;endArrow=classic;html=1;rounded=0;entryX=0;entryY=0.75;entryDx=0;entryDy=0;fillColor=#4D4D4D;strokeColor=none;shadow=0;strokeWidth=1;width=10;endSize=5.761904761904762;" edge="1" parent="1">
          <mxGeometry width="50" height="50" relative="1" as="geometry">
            <mxPoint x="480" y="360" as="sourcePoint" />
            <mxPoint x="560" y="360" as="targetPoint" />
          </mxGeometry>
        </mxCell>
        <mxCell id="JskoURoQhUJMNRTtYPGv-26" value="" style="shape=flexArrow;endArrow=classic;html=1;rounded=0;entryX=0;entryY=0.75;entryDx=0;entryDy=0;fillColor=#4D4D4D;strokeColor=none;shadow=0;strokeWidth=1;width=10;endSize=5.761904761904762;" edge="1" parent="1">
          <mxGeometry width="50" height="50" relative="1" as="geometry">
            <mxPoint x="480" y="399.76" as="sourcePoint" />
            <mxPoint x="560" y="399.76" as="targetPoint" />
          </mxGeometry>
        </mxCell>
        <mxCell id="JskoURoQhUJMNRTtYPGv-27" value="" style="shape=flexArrow;endArrow=classic;html=1;rounded=0;entryX=0;entryY=0.75;entryDx=0;entryDy=0;fillColor=#4D4D4D;strokeColor=none;shadow=0;strokeWidth=1;width=10;endSize=5.761904761904762;" edge="1" parent="1">
          <mxGeometry width="50" height="50" relative="1" as="geometry">
            <mxPoint x="480" y="439.52" as="sourcePoint" />
            <mxPoint x="560" y="439.52" as="targetPoint" />
          </mxGeometry>
        </mxCell>
        <mxCell id="JskoURoQhUJMNRTtYPGv-29" value="packet_data" style="rounded=0;whiteSpace=wrap;html=1;fillColor=none;strokeColor=none;" vertex="1" parent="1">
          <mxGeometry x="80" y="410" width="70" height="20" as="geometry" />
        </mxCell>
        <mxCell id="JskoURoQhUJMNRTtYPGv-30" value="packet_valid" style="rounded=0;whiteSpace=wrap;html=1;fillColor=none;strokeColor=none;" vertex="1" parent="1">
          <mxGeometry x="80" y="450" width="70" height="20" as="geometry" />
        </mxCell>
        <mxCell id="JskoURoQhUJMNRTtYPGv-31" value="packet_data_valid" style="rounded=0;whiteSpace=wrap;html=1;fillColor=none;strokeColor=none;" vertex="1" parent="1">
          <mxGeometry x="50" y="370" width="100" height="20" as="geometry" />
        </mxCell>
        <mxCell id="JskoURoQhUJMNRTtYPGv-32" value="packet_incomming" style="rounded=0;whiteSpace=wrap;html=1;fillColor=none;strokeColor=none;" vertex="1" parent="1">
          <mxGeometry x="50" y="290" width="100" height="20" as="geometry" />
        </mxCell>
        <mxCell id="JskoURoQhUJMNRTtYPGv-33" value="ID" style="rounded=0;whiteSpace=wrap;html=1;fillColor=none;strokeColor=none;" vertex="1" parent="1">
          <mxGeometry x="570" y="270" width="100" height="20" as="geometry" />
        </mxCell>
        <mxCell id="JskoURoQhUJMNRTtYPGv-34" value="CRACK MAX" style="rounded=0;whiteSpace=wrap;html=1;fillColor=none;strokeColor=none;" vertex="1" parent="1">
          <mxGeometry x="570" y="310" width="100" height="20" as="geometry" />
        </mxCell>
        <mxCell id="JskoURoQhUJMNRTtYPGv-35" value="SALT" style="rounded=0;whiteSpace=wrap;html=1;fillColor=none;strokeColor=none;" vertex="1" parent="1">
          <mxGeometry x="570" y="350" width="100" height="20" as="geometry" />
        </mxCell>
        <mxCell id="JskoURoQhUJMNRTtYPGv-36" value="HASH" style="rounded=0;whiteSpace=wrap;html=1;fillColor=none;strokeColor=none;" vertex="1" parent="1">
          <mxGeometry x="570" y="390" width="100" height="20" as="geometry" />
        </mxCell>
        <mxCell id="JskoURoQhUJMNRTtYPGv-37" value="PWD COUNTER INIT" style="rounded=0;whiteSpace=wrap;html=1;fillColor=none;strokeColor=none;" vertex="1" parent="1">
          <mxGeometry x="560" y="430" width="120" height="20" as="geometry" />
        </mxCell>
      </root>
    </mxGraphModel>
  </diagram>
</mxfile>
